<svg width="128" height="128" viewBox="0 0 128 128" fill="none" xmlns="http://www.w3.org/2000/svg">
  <rect width="128" height="128" rx="22" fill="#FFD60A"/>
  <path d="M23 58C34 39 50 32 69 37C83 41 92 52 98 67C88 63 76 62 62 66C46 71 33 68 23 58Z" fill="#0A0A0A"/>
  <path d="M58 37C75 17 99 13 117 18C101 34 88 45 72 51C64 54 58 49 58 37Z" fill="#0A0A0A"/>
  <path d="M65 42C79 27 96 22 108 23C96 34 84 43 72 47C68 48 65 46 65 42Z" fill="#FFD60A"/>
  <path d="M76 53C92 42 109 40 121 47C105 57 91 62 76 61C72 60 72 56 76 53Z" fill="#0A0A0A"/>
  <path d="M82 56C94 50 106 48 114 50C103 56 94 59 84 59C81 59 80 58 82 56Z" fill="#FFD60A"/>
  <path d="M90 68C101 70 109 78 113 91C101 88 91 82 83 72C85 69 87 68 90 68Z" fill="#0A0A0A"/>
  <path d="M90 72C96 74 101 78 105 84C98 82 93 79 88 74C88 73 89 72 90 72Z" fill="#FFD60A"/>
  <path d="M23 57C15 46 11 38 7 27C18 32 28 40 35 52L23 57Z" fill="#0A0A0A"/>
  <path d="M26 64C17 68 11 75 7 86C20 82 29 76 36 67L26 64Z" fill="#0A0A0A"/>
  <path d="M42 69L31 96" stroke="#0A0A0A" stroke-width="8" stroke-linecap="round"/>
  <path d="M58 69L54 103" stroke="#0A0A0A" stroke-width="8" stroke-linecap="round"/>
  <path d="M76 66L89 99" stroke="#0A0A0A" stroke-width="8" stroke-linecap="round"/>
  <path d="M37 51C42 44 51 42 59 45C54 49 48 52 39 55L37 51Z" fill="#FFD60A"/>
  <path d="M58 46C64 48 70 53 74 61C67 60 60 58 52 54L58 46Z" fill="#FFD60A"/>
  <path d="M75 62C82 65 87 70 92 77C83 76 75 73 67 68L75 62Z" fill="#FFD60A"/>
  <circle cx="31" cy="53" r="7" fill="#FFD60A"/>
  <circle cx="33" cy="51" r="3" fill="#0A0A0A"/>
</svg>
